<svg width="6" height="15" viewBox="0 0 6 15" fill="none" xmlns="http://www.w3.org/2000/svg">
<path d="M1.5 15V11.25H0V6C0 5.375 0.21875 4.84375 0.65625 4.40625C1.09375 3.96875 1.625 3.75 2.25 3.75C2.875 3.75 3.40625 3.96875 3.84375 4.40625C4.28125 4.84375 4.5 5.375 4.5 6C4.95 6.1875 5.3125 6.4875 5.5875 6.9C5.8625 7.3125 6 7.7625 6 8.25V11.25H3.75V15H1.5ZM2.25 3C1.8375 3 1.48438 2.85313 1.19062 2.55938C0.896875 2.26562 0.75 1.9125 0.75 1.5C0.75 1.0875 0.896875 0.734375 1.19062 0.440625C1.48438 0.146875 1.8375 0 2.25 0C2.6625 0 3.01562 0.146875 3.30938 0.440625C3.60313 0.734375 3.75 1.0875 3.75 1.5C3.75 1.9125 3.60313 2.26562 3.30938 2.55938C3.01562 2.85313 2.6625 3 2.25 3Z" fill="#5454D2"/>
</svg>
