<svg preserveAspectRatio="none" width="100%" height="100%" overflow="visible" style="display: block;" viewBox="0 0 62 22" fill="none" xmlns="http://www.w3.org/2000/svg">
<g id="Levels">
<path id="Cellular Connection" fill-rule="evenodd" clip-rule="evenodd" d="M14 7.84375C14 7.37776 13.6518 7 13.2222 7H12.4444C12.0149 7 11.6667 7.37776 11.6667 7.84375V15.1562C11.6667 15.6222 12.0149 16 12.4444 16H13.2222C13.6518 16 14 15.6222 14 15.1562V7.84375ZM8.57929 8.8H9.35707C9.78662 8.8 10.1348 9.18683 10.1348 9.664V15.136C10.1348 15.6132 9.78662 16 9.35707 16H8.57929C8.14974 16 7.80151 15.6132 7.80151 15.136V9.664C7.80151 9.18683 8.14974 8.8 8.57929 8.8ZM5.42071 10.75H4.64293C4.21338 10.75 3.86515 11.1417 3.86515 11.625V15.125C3.86515 15.6082 4.21338 16 4.64293 16H5.42071C5.85026 16 6.19849 15.6082 6.19849 15.125V11.625C6.19849 11.1417 5.85026 10.75 5.42071 10.75ZM1.55556 12.55H0.777778C0.348223 12.55 0 12.9362 0 13.4125V15.1375C0 15.6138 0.348223 16 0.777778 16H1.55556C1.98511 16 2.33333 15.6138 2.33333 15.1375V13.4125C2.33333 12.9362 1.98511 12.55 1.55556 12.55Z" fill="var(--fill-0, black)"/>
<path id="Wifi" fill-rule="evenodd" clip-rule="evenodd" d="M24.0003 8.80045C25.7414 8.80053 27.4159 9.47368 28.6778 10.6808C28.7728 10.774 28.9247 10.7728 29.0183 10.6781L29.9266 9.75576C29.974 9.70775 30.0004 9.64272 30 9.57507C29.9996 9.50741 29.9724 9.44269 29.9245 9.39525C26.6125 6.20158 21.3876 6.20158 18.0756 9.39525C18.0277 9.44266 18.0004 9.50735 18 9.57501C17.9996 9.64267 18.0259 9.70772 18.0733 9.75576L18.9819 10.6781C19.0754 10.7729 19.2274 10.7741 19.3223 10.6808C20.5843 9.4736 22.2591 8.80045 24.0003 8.80045ZM23.998 11.8814C24.9482 11.8813 25.8644 12.2549 26.5688 12.9295C26.664 13.0253 26.8141 13.0232 26.907 12.9249L27.8081 11.9617C27.8556 11.9112 27.8819 11.8427 27.8812 11.7715C27.8806 11.7002 27.8529 11.6323 27.8045 11.5828C25.6597 9.4724 22.3381 9.4724 20.1933 11.5828C20.1448 11.6323 20.1172 11.7003 20.1166 11.7715C20.1159 11.8427 20.1423 11.9113 20.1899 11.9617L21.0908 12.9249C21.1837 13.0232 21.3337 13.0253 21.429 12.9295C22.1329 12.2553 23.0484 11.8818 23.998 11.8814ZM25.7652 13.9207C25.7665 13.9976 25.7406 14.0718 25.6935 14.1257L24.1697 15.9177C24.125 15.9704 24.0642 16 24.0006 16C23.9371 16 23.8762 15.9704 23.8315 15.9177L22.3075 14.1257C22.2604 14.0718 22.2345 13.9976 22.2359 13.9207C22.2373 13.8438 22.2659 13.7709 22.3148 13.7194C23.288 12.7602 24.7132 12.7602 25.6864 13.7194C25.7353 13.771 25.7638 13.8438 25.7652 13.9207Z" fill="var(--fill-0, black)"/>
<g id="Frame">
<rect id="Border" opacity="0.35" x="39.5059" y="6.22498" width="19" height="10" rx="3.8" stroke="var(--stroke-0, black)"/>
<path id="Cap" opacity="0.4" d="M60.0059 8.72498V12.725C60.6118 12.3862 61.0059 11.5981 61.0059 10.725C61.0059 9.85184 60.6118 9.06375 60.0059 8.72498" fill="var(--fill-0, black)"/>
<rect id="Capacity" x="41.0059" y="7.72498" width="16" height="7" rx="2.5" fill="var(--fill-0, black)"/>
</g>
</g>
</svg>
