<svg width="14" height="14" viewBox="0 0 14 14" fill="none" xmlns="http://www.w3.org/2000/svg">
<path d="M5.5 7.33333C5.5 7.79333 5.12667 8.16667 4.66667 8.16667C4.20667 8.16667 3.83333 7.79333 3.83333 7.33333C3.83333 6.87333 4.20667 6.5 4.66667 6.5C5.12667 6.5 5.5 6.87333 5.5 7.33333ZM8.66667 6.5C8.20667 6.5 7.83333 6.87333 7.83333 7.33333C7.83333 7.79333 8.20667 8.16667 8.66667 8.16667C9.12667 8.16667 9.5 7.79333 9.5 7.33333C9.5 6.87333 9.12667 6.5 8.66667 6.5ZM13.3333 6.66667C13.3333 10.3467 10.3467 13.3333 6.66667 13.3333C2.98667 13.3333 0 10.3467 0 6.66667C0 2.98667 2.98667 0 6.66667 0C10.3467 0 13.3333 2.98667 13.3333 6.66667ZM12 6.66667C12 6.14667 11.92 5.64667 11.78 5.17333C11.3133 5.27333 10.8333 5.33333 10.3333 5.33333C8.24667 5.33333 6.38667 4.37333 5.16 2.87333C4.46 4.58 3.06667 5.92 1.33333 6.57333C1.34 6.6 1.33333 6.63333 1.33333 6.66667C1.33333 9.60667 3.72667 12 6.66667 12C9.60667 12 12 9.60667 12 6.66667Z" fill="#5454D2"/>
</svg>
