<svg width="20" height="20" viewBox="0 0 20 20" fill="none" xmlns="http://www.w3.org/2000/svg">
<path d="M15.8346 12.5V15.7409C15.8346 17.595 15.2213 18.3334 13.2421 18.3334H6.75964C4.9063 18.3334 4.16797 17.72 4.16797 15.7409V12.5C4.16797 11.734 4.31885 10.9754 4.612 10.2677C4.90516 9.55997 5.33484 8.91691 5.87651 8.37523C6.41819 7.83356 7.06125 7.40388 7.76898 7.11072C8.47671 6.81757 9.23526 6.66669 10.0013 6.66669C10.7673 6.66669 11.5259 6.81757 12.2336 7.11072C12.9414 7.40388 13.5844 7.83356 14.1261 8.37523C14.6678 8.91691 15.0974 9.55997 15.3906 10.2677C15.6838 10.9754 15.8346 11.734 15.8346 12.5Z" stroke="#C99FF3" stroke-width="1.5" stroke-linecap="round"/>
<path d="M13.3339 12.5C13.3339 11.616 12.9827 10.7681 12.3576 10.143C11.7324 9.51788 10.8846 9.16669 10.0005 9.16669C9.11648 9.16669 8.26863 9.51788 7.64351 10.143C7.01839 10.7681 6.6672 11.616 6.6672 12.5M10.0005 14.1667L10.8339 12.5M11.6672 6.66669V4.16669M8.33386 6.66669V4.16669M13.5939 4.16669H6.4072C5.67053 4.16669 5.3022 4.16669 4.97803 4.04002C4.87071 3.99879 4.76794 3.94657 4.67136 3.88419C4.3797 3.70085 4.17553 3.41085 3.7672 2.83169C3.44886 2.38085 3.2897 2.15502 3.3447 1.97085C3.36241 1.91216 3.39285 1.8581 3.43386 1.81252C3.5672 1.66669 3.85386 1.66669 4.42803 1.66669H15.5747C16.1489 1.66669 16.4355 1.66669 16.568 1.81252C16.6097 1.85919 16.6394 1.91196 16.6572 1.97085C16.7122 2.15502 16.553 2.38085 16.2347 2.83169C15.8264 3.41085 15.6222 3.70002 15.3305 3.88419C15.234 3.94657 15.1312 3.99879 15.0239 4.04002C14.698 4.16669 14.3305 4.16669 13.5939 4.16669Z" stroke="#C99FF3" stroke-width="1.5" stroke-linecap="round"/>
</svg>
